<?xml version="1.0" encoding="utf-8"?>
<!-- Generator: Adobe Illustrator 22.1.0, SVG Export Plug-In . SVG Version: 6.00 Build 0)  -->
<svg version="1.1" id="Layer_1" xmlns="http://www.w3.org/2000/svg" xmlns:xlink="http://www.w3.org/1999/xlink" x="0px" y="0px"
	 viewBox="0 0 294.5 90" style="enable-background:new 0 0 294.5 90;" xml:space="preserve">
<style type="text/css">
	.st0{fill:none;}
	.st1{fill:#DB1721;}
	.st2{fill:#666666;}
</style>
<g>
	<path class="st0" d="M126.2,40c-0.4,0-0.7,0.1-1.1,0.3l-19.9,11.9c-0.6,0.4-0.9,1-0.9,1.8c0,0.2,0,0.4,0,0.5
		c0.8,2.5,2.3,4.6,4.4,6.1c2.2,1.6,4.7,2.4,7.4,2.4c3.4,0,6.3-1.2,8.7-3.6c2.4-2.5,3.6-5.4,3.6-8.7v-8.5
		C128.4,40.7,127.7,40,126.2,40z"/>
	<path class="st0" d="M198,27c-3.4,0-6.3,1.2-8.7,3.6c-2.4,2.4-3.6,5.3-3.6,8.7v11.3c0,3.4,1.2,6.3,3.6,8.7c2.4,2.4,5.3,3.6,8.7,3.6
		c3.4,0,6.3-1.2,8.7-3.6c2.5-2.4,3.7-5.3,3.7-8.7V39.3c0-3.4-1.2-6.3-3.7-8.7C204.3,28.2,201.4,27,198,27z"/>
	<path class="st0" d="M259,29.4c-2.2-1.6-4.6-2.4-7.4-2.4c-3.4,0-6.3,1.2-8.7,3.6c-2.4,2.5-3.6,5.4-3.6,8.8v8.4
		c0,1.5,0.8,2.2,2.2,2.2c0.4,0,0.8-0.1,1.1-0.3l19.9-11.9c0.7-0.4,1-1,1-1.8c0-0.2,0-0.4-0.1-0.5C262.6,33,261.1,31,259,29.4z"/>
	<path class="st1" d="M56.9,22.5c-3.4,0-6.5,0.9-9.3,2.8c-0.4,0.2-0.8,0.3-1.2,0.3c-1,0-1.7-0.5-2.1-1.4c-0.4-1.1-1.1-1.6-2.2-1.6
		c-1.4,0-2.2,0.8-2.2,2.2v15.6l4.6-2.8c0.3-2.7,1.5-5,3.6-7c2.4-2.4,5.3-3.6,8.7-3.6c3.4,0,6.3,1.2,8.7,3.6c2.4,2.4,3.6,5.3,3.6,8.7
		v25.9c0,1.5,0.8,2.2,2.2,2.2c1.5,0,2.2-0.7,2.2-2.2V39.3c0-4.6-1.7-8.6-5-11.9C65.5,24.2,61.5,22.5,56.9,22.5z"/>
	<path class="st1" d="M40,65.2c0,1.5,0.8,2.2,2.2,2.2c1.5,0,2.2-0.7,2.2-2.2V50.6v-6L40,47.3V65.2z"/>
	<path class="st1" d="M96.6,22.5h-7.8c-1.4,0-2.2-0.7-2.2-2.2V2.2C86.5,0.8,85.8,0,84.3,0c-1.5,0-2.2,0.8-2.2,2.2v63.4
		c0,2,4.5,2.4,4.5,0V29.2c0-1.5,0.8-2.2,2.2-2.2h7.8c1.5,0,2.2-0.7,2.2-2.2C98.9,23.3,98.1,22.5,96.6,22.5z"/>
	<path class="st1" d="M116.1,22.5c-6.1,0-10.8,2.6-14.1,7.6c-0.3,0.4-0.5,0.8-0.5,1.3c0,1.5,0.8,2.2,2.2,2.2c0.8,0,1.5-0.3,1.9-1
		c2.5-3.8,5.9-5.7,10.4-5.7c4,0,7.3,1.6,9.7,4.8c0.3,0.4,0.5,0.8,0.5,1.3c0,0.7-0.3,1.3-0.9,1.8L100.3,50c-0.7,0.4-1,1-1,1.8
		c0.3,4.4,2.1,8.1,5.3,11.1c3.2,3.1,7.1,4.6,11.5,4.6c4.7,0,8.7-1.6,12-5c3.2-3.3,4.9-7.3,4.9-11.9V39.4c0-4.7-1.6-8.7-4.9-12
		C124.8,24.2,120.8,22.5,116.1,22.5z M128.4,50.7c0,3.4-1.2,6.3-3.6,8.7c-2.4,2.4-5.3,3.6-8.7,3.6c-2.7,0-5.2-0.8-7.4-2.4
		c-2.1-1.6-3.6-3.6-4.4-6.1c0-0.2,0-0.4,0-0.5c0-0.8,0.3-1.4,0.9-1.8l19.9-11.9c0.4-0.2,0.7-0.3,1.1-0.3c1.5,0,2.2,0.8,2.2,2.2V50.7
		z"/>
	<path class="st1" d="M157,22.5c-3.4,0-6.5,0.9-9.3,2.8c-0.4,0.2-0.8,0.3-1.2,0.3c-1,0-1.7-0.5-2.1-1.4c-0.4-1.1-1.1-1.6-2.2-1.6
		c-1.4,0-2.2,0.8-2.2,2.2v40.5c0,1.5,0.8,2.2,2.2,2.2c1.5,0,2.2-0.7,2.2-2.2V50.6V39.3c0-3.4,1.2-6.3,3.7-8.7
		c2.4-2.4,5.3-3.6,8.7-3.6c3.4,0,6.3,1.2,8.7,3.6c2.4,2.4,3.6,5.3,3.6,8.7v25.9c0,1.5,0.8,2.2,2.2,2.2c1.5,0,2.2-0.7,2.2-2.2V39.3
		c0-4.6-1.7-8.6-5-11.9C165.6,24.2,161.6,22.5,157,22.5z"/>
	<path class="st1" d="M212.6,22.5c-1.1,0-1.8,0.5-2.2,1.6c-0.4,1-1.1,1.4-2.1,1.4c-0.4,0-0.8-0.1-1.2-0.3c-2.8-1.9-5.9-2.8-9.3-2.8
		c-4.6,0-8.6,1.7-11.9,5c-3.3,3.3-5,7.3-5,11.9v11.3c0,4.6,1.6,8.6,5,11.9c3.3,3.3,7.3,5,11.9,5c3.2,0,6.2-0.9,9-2.6
		c0.4-0.2,0.7-0.3,1.2-0.3c1.5,0,2.2,0.8,2.2,2.2v6.3c0,3.4-1.2,6.3-3.6,8.7c-2.5,2.4-5.4,3.6-8.8,3.6c-4.5,0-8-1.9-10.4-5.8
		c-0.5-0.7-1.1-1-1.9-1c-1.5,0-2.2,0.7-2.2,2.2c0,0.5,0.1,0.9,0.5,1.4c3.4,5.1,8.1,7.6,14.2,7.6c4.6,0,8.6-1.7,11.9-5
		c3.3-3.3,5-7.3,5-11.9V24.8C214.9,23.3,214.1,22.5,212.6,22.5z M210.4,50.7c0,3.4-1.2,6.3-3.7,8.7c-2.4,2.4-5.3,3.6-8.7,3.6
		c-3.4,0-6.3-1.2-8.7-3.6c-2.4-2.4-3.6-5.3-3.6-8.7V39.3c0-3.4,1.2-6.3,3.6-8.7c2.4-2.4,5.3-3.6,8.7-3.6c3.4,0,6.3,1.2,8.7,3.6
		c2.5,2.4,3.7,5.3,3.7,8.7V50.7z"/>
	<path class="st1" d="M224.7,0c-1.5,0-2.2,0.8-2.2,2.2v63c0,1.5,0.8,2.2,2.2,2.2c1.5,0,2.2-0.7,2.2-2.2v-63C227,0.8,226.2,0,224.7,0
		z"/>
	<path class="st1" d="M263.2,27.1c-3.2-3.1-7.1-4.6-11.6-4.6c-4.6,0-8.6,1.7-11.9,5c-3.3,3.3-5,7.3-5,12v11.2c0,4.6,1.6,8.6,5,11.9
		c3.3,3.3,7.3,5,11.9,5c6.1,0,10.8-2.5,14.1-7.6c0.3-0.4,0.5-0.8,0.5-1.3c0-1.5-0.8-2.2-2.2-2.2c-1,0-1.6,0.3-1.9,1
		c-2.5,3.8-5.9,5.7-10.4,5.7c-4,0-7.2-1.6-9.7-4.8c-0.2-0.4-0.4-0.8-0.4-1.3c0-0.7,0.3-1.3,0.9-1.8l25-15.1c0.7-0.5,1-1.1,1-1.9
		C268.1,33.8,266.4,30.1,263.2,27.1z M262.5,37.9l-19.9,11.9c-0.3,0.2-0.7,0.3-1.1,0.3c-1.5,0-2.2-0.7-2.2-2.2v-8.4
		c0-3.4,1.2-6.4,3.6-8.8c2.5-2.4,5.4-3.6,8.7-3.6c2.8,0,5.2,0.8,7.4,2.4c2.2,1.6,3.6,3.6,4.4,6.1c0.1,0.2,0.1,0.4,0.1,0.5
		C263.5,36.9,263.1,37.5,262.5,37.9z"/>
	<path class="st1" d="M25.6,59.4c-2.4,2.4-5.3,3.6-8.7,3.6s-6.3-1.2-8.7-3.6c-2.4-2.4-3.6-5.3-3.6-8.7V24.8c0-1.5-0.8-2.2-2.2-2.2
		c-1.5,0-2.2,0.7-2.2,2.2v25.9c0,4.6,1.7,8.6,5,11.9c3.3,3.3,7.3,5,11.9,5c3.4,0,6.5-0.9,9.3-2.8c0.4-0.2,0.8-0.3,1.2-0.3
		c1,0,1.7,0.5,2.1,1.4c0.4,1.1,1.1,1.6,2.2,1.6c1.4,0,2.2-0.8,2.2-2.2V51l-4.9,3C28.2,56,27.2,57.8,25.6,59.4z"/>
	<path class="st1" d="M33.8,24.8c0-1.5-0.8-2.2-2.2-2.2c-1.5,0-2.2,0.7-2.2,2.2v14.7v7.4l4.5-2.7V24.8z"/>
	<path class="st2" d="M267,72.5c0,1.5,0.8,2.2,2.2,2.2h23c1.5,0,2.2-0.8,2.2-2.2c0-1.5-0.7-2.2-2.2-2.2h-23
		C267.7,70.2,267,71,267,72.5z"/>
</g>
</svg>
